<?xml version="1.0" encoding="UTF-8" standalone="no"?>
<!-- Created with Inkscape (http://www.inkscape.org/) -->

<svg
   xmlns:dc="http://purl.org/dc/elements/1.1/"
   xmlns:cc="http://creativecommons.org/ns#"
   xmlns:rdf="http://www.w3.org/1999/02/22-rdf-syntax-ns#"
   xmlns:svg="http://www.w3.org/2000/svg"
   xmlns="http://www.w3.org/2000/svg"
   xmlns:sodipodi="http://sodipodi.sourceforge.net/DTD/sodipodi-0.dtd"
   xmlns:inkscape="http://www.inkscape.org/namespaces/inkscape"
   width="30"
   height="30"
   id="svg4739"
   version="1.1"
   inkscape:version="0.48.3.1 r9886"
   sodipodi:docname="New document 2">
  <defs
     id="defs4741" />
  <sodipodi:namedview
     id="base"
     pagecolor="#ffffff"
     bordercolor="#666666"
     borderopacity="1.0"
     inkscape:pageopacity="0.0"
     inkscape:pageshadow="2"
     inkscape:zoom="2"
     inkscape:cx="-146.69289"
     inkscape:cy="36.245604"
     inkscape:document-units="px"
     inkscape:current-layer="layer1"
     showgrid="false"
     fit-margin-top="0"
     fit-margin-left="0"
     fit-margin-right="0"
     fit-margin-bottom="0"
     inkscape:window-width="1920"
     inkscape:window-height="1056"
     inkscape:window-x="0"
     inkscape:window-y="24"
     inkscape:window-maximized="1" />
  <metadata
     id="metadata4744">
    <rdf:RDF>
      <cc:Work
         rdf:about="">
        <dc:format>image/svg+xml</dc:format>
        <dc:type
           rdf:resource="http://purl.org/dc/dcmitype/StillImage" />
        <dc:title></dc:title>
      </cc:Work>
    </rdf:RDF>
  </metadata>
  <g
     inkscape:label="Layer 1"
     inkscape:groupmode="layer"
     id="layer1"
     transform="translate(-336.42857,-497.06433)">
    <path
       d="m 366.42857,505.18433 -14.477,-5.81 -15.523,5.713 15.047,5.906 14.953,-5.809 z m -23.238,3.619 -0.667,9.714 c 5.333,-3.999 8.571,0.381 9.238,1.429 4.19,-6.572 9.048,-0.667 9.048,-0.667 0,0 0,-0.477 0,-10 -3.81,2.287 -7.429,3.523 -8.572,3.429 -4.572,-0.001 -9.047,-3.905 -9.047,-3.905 z m -3.879,-0.26 h -1.048 v 3.021 h -1.169 v 2 h 1.169 v 1.979 h -0.868 v 7.521 h 0.926 v -2.616 h 0.962 v 2.616 h 0.927 v -7.521 h -0.899 v -1.979 h 1.021 v -2 h -1.021 v -3.021 z"
       id="path8139"
       inkscape:connector-curvature="0"
       style="fill:#4b4a4a" />
  </g>
</svg>
